<svg width="62" height="41" viewBox="0 0 62 41" fill="none" xmlns="http://www.w3.org/2000/svg">
<path d="M59.4561 0.051774H45.8792C44.7194 0.051774 43.7758 0.995272 43.7758 2.15506V4.93264C43.7758 6.09243 44.7193 7.03593 45.8792 7.03593H46.0765V11.68C45.1632 10.9606 44.0126 10.5296 42.7626 10.5296H18.9676C17.7176 10.5296 16.5669 10.9604 15.6538 11.68V7.02595H16.121C17.2808 7.02595 18.2244 6.08245 18.2244 4.92266V2.14508C18.2244 0.985292 17.2809 0.0417938 16.121 0.0417938H2.54409C1.38431 0.0417938 0.440674 0.985292 0.440674 2.14508V4.92266C0.440674 6.08245 1.38417 7.02595 2.54409 7.02595H3.01126V20.1205C3.01126 22.2153 4.62468 23.9395 6.6741 24.1181V26.1644C6.6741 27.7895 7.99631 29.1115 9.62135 29.1115H11.9724V38.9481H10.5035C9.93676 38.9481 9.47752 39.4074 9.47752 39.974C9.47752 40.5406 9.93676 40.9999 10.5035 40.9999H20.7547C21.3214 40.9999 21.7806 40.5406 21.7806 39.974C21.7806 39.4074 21.3214 38.9481 20.7547 38.9481H19.2857V29.1115H42.4447V38.9481H40.9758C40.4091 38.9481 39.9499 39.4074 39.9499 39.974C39.9499 40.5406 40.4091 40.9999 40.9758 40.9999H51.2271C51.7938 40.9999 52.2531 40.5406 52.2531 39.974C52.2531 39.4074 51.7938 38.9481 51.2271 38.9481H49.7581V29.1115H52.1092C53.7343 29.1115 55.0563 27.7895 55.0563 26.1644V24.1181C57.1058 23.9396 58.7192 22.2153 58.7192 20.1205V7.03593H59.4564C60.6162 7.03593 61.5598 6.09243 61.5598 4.93264V2.15506C61.5595 0.995409 60.616 0.051774 59.4561 0.051774ZM18.9676 12.5818H42.7627C44.5901 12.5818 46.0766 14.0683 46.0766 15.8957V22.0825H15.6537V15.8957C15.6537 14.0683 17.1403 12.5818 18.9676 12.5818ZM2.54409 4.97407C2.51579 4.97407 2.49269 4.95096 2.49269 4.92266V2.14508C2.49269 2.11678 2.51579 2.09367 2.54409 2.09367H16.121C16.1493 2.09367 16.1724 2.11678 16.1724 2.14508V4.92266C16.1724 4.95096 16.1493 4.97407 16.121 4.97407H2.54409ZM7.0252 22.0827C5.94334 22.0825 5.06314 21.2023 5.06314 20.1206V7.02609H13.6018V22.0827H7.0252ZM17.2337 38.9481H14.0244V29.1117H17.2337V38.9481ZM47.7059 38.9481H44.4966V29.1117H47.7059V38.9481ZM53.0042 26.1644C53.0042 26.6581 52.6026 27.0597 52.1091 27.0597H9.62135C9.12766 27.0597 8.72598 26.6581 8.72598 26.1644V24.1344H53.0042V26.1644ZM56.667 20.1206C56.667 21.2025 55.7868 22.0825 54.705 22.0825H48.1285V7.03607H56.667V20.1206V20.1206ZM59.5076 4.93278C59.5076 4.96108 59.4845 4.98419 59.4562 4.98419H45.8794C45.8511 4.98419 45.828 4.96108 45.828 4.93278V2.1552C45.828 2.1269 45.8511 2.10379 45.8794 2.10379H59.4562C59.4845 2.10379 59.5076 2.1269 59.5076 2.1552V4.93278Z" fill="white"/>
</svg>
