<svg width="46" height="27" viewBox="0 0 46 27" fill="none" xmlns="http://www.w3.org/2000/svg">
<path d="M45.6955 8.45511C45.6958 3.793 41.9028 0 37.2407 0H8.48636C3.82411 0 0.03125 3.793 0.03125 8.45511V25.269C0.0313867 25.8357 0.490625 26.2949 1.05733 26.2949C1.62403 26.2949 2.08326 25.8355 2.08326 25.269V8.45511C2.08326 4.92435 4.95573 2.05188 8.48636 2.05188H37.2406C40.7712 2.05188 43.6437 4.92435 43.6437 8.4599L43.7231 25.2737C43.7258 25.8387 44.1845 26.2949 44.7489 26.2949C44.7505 26.2949 44.7522 26.2949 44.7538 26.2949C45.3205 26.2922 45.7777 25.8307 45.775 25.264L45.6955 8.45511Z" fill="white"/>
</svg>
