<svg width="62" height="41" viewBox="0 0 62 41" fill="none" xmlns="http://www.w3.org/2000/svg">
<path d="M59.456 0.0517893H45.8792C44.7194 0.0517893 43.7757 0.995288 43.7757 2.15507V4.93266C43.7757 6.09244 44.7192 7.03594 45.8792 7.03594H46.0764V11.68C45.1632 10.9606 44.0125 10.5297 42.7625 10.5297H18.9675C17.7175 10.5297 16.5669 10.9605 15.6537 11.68V7.02596H16.1209C17.2807 7.02596 18.2243 6.08246 18.2243 4.92268V2.14509C18.2243 0.985307 17.2808 0.0418091 16.1209 0.0418091H2.54403C1.38425 0.0418091 0.440613 0.985307 0.440613 2.14509V4.92268C0.440613 6.08246 1.38411 7.02596 2.54403 7.02596H3.0112V20.1205C3.0112 22.2153 4.62462 23.9395 6.67404 24.1182V26.1644C6.67404 27.7895 7.99625 29.1116 9.62129 29.1116H11.9723V38.9481H10.5034C9.9367 38.9481 9.47746 39.4075 9.47746 39.974C9.47746 40.5406 9.9367 40.9999 10.5034 40.9999H20.7546C21.3213 40.9999 21.7805 40.5406 21.7805 39.974C21.7805 39.4075 21.3213 38.9481 20.7546 38.9481H19.2857V29.1116H42.4446V38.9481H40.9757C40.409 38.9481 39.9498 39.4075 39.9498 39.974C39.9498 40.5406 40.409 40.9999 40.9757 40.9999H51.2271C51.7938 40.9999 52.253 40.5406 52.253 39.974C52.253 39.4075 51.7938 38.9481 51.2271 38.9481H49.758V29.1116H52.1092C53.7342 29.1116 55.0563 27.7895 55.0563 26.1644V24.1182C57.1057 23.9396 58.7191 22.2153 58.7191 20.1205V7.03594H59.4563C60.6161 7.03594 61.5597 6.09244 61.5597 4.93266V2.15507C61.5595 0.995424 60.616 0.0517893 59.456 0.0517893ZM18.9675 12.5818H42.7626C44.59 12.5818 46.0766 14.0684 46.0766 15.8957V22.0826H15.6536V15.8957C15.6536 14.0684 17.1403 12.5818 18.9675 12.5818ZM2.54403 4.97408C2.51573 4.97408 2.49263 4.95098 2.49263 4.92268V2.14509C2.49263 2.11679 2.51573 2.09369 2.54403 2.09369H16.1209C16.1492 2.09369 16.1723 2.11679 16.1723 2.14509V4.92268C16.1723 4.95098 16.1492 4.97408 16.1209 4.97408H2.54403ZM7.02513 22.0827C5.94328 22.0826 5.06308 21.2024 5.06308 20.1206V7.0261H13.6017V22.0827H7.02513ZM17.2337 38.9481H14.0243V29.1117H17.2337V38.9481ZM47.7059 38.9481H44.4965V29.1117H47.7059V38.9481ZM53.0041 26.1644C53.0041 26.6581 52.6026 27.0597 52.109 27.0597H9.62129C9.1276 27.0597 8.72592 26.6581 8.72592 26.1644V24.1344H53.0041V26.1644ZM56.667 20.1206C56.667 21.2025 55.7868 22.0826 54.7049 22.0826H48.1285V7.03608H56.667V20.1206V20.1206ZM59.5076 4.93279C59.5076 4.9611 59.4845 4.9842 59.4562 4.9842H45.8793C45.851 4.9842 45.8279 4.9611 45.8279 4.93279V2.15521C45.8279 2.12691 45.851 2.10381 45.8793 2.10381H59.4562C59.4845 2.10381 59.5076 2.12691 59.5076 2.15521V4.93279Z" fill="white"/>
</svg>
