<svg width="46" height="27" viewBox="0 0 46 27" fill="none" xmlns="http://www.w3.org/2000/svg">
<path d="M45.6956 8.45511C45.6959 3.793 41.9029 0 37.2408 0H8.48642C3.82417 0 0.031311 3.793 0.031311 8.45511V25.269C0.0314478 25.8357 0.490687 26.2949 1.05739 26.2949C1.62409 26.2949 2.08333 25.8355 2.08333 25.269V8.45511C2.08333 4.92435 4.95579 2.05188 8.48642 2.05188H37.2406C40.7712 2.05188 43.6437 4.92435 43.6437 8.4599L43.7232 25.2737C43.7259 25.8387 44.1846 26.2949 44.749 26.2949C44.7506 26.2949 44.7522 26.2949 44.7539 26.2949C45.3206 26.2922 45.7778 25.8307 45.775 25.264L45.6956 8.45511Z" fill="white"/>
</svg>
