<svg width="20" height="62" viewBox="0 0 20 62" fill="none" xmlns="http://www.w3.org/2000/svg">
<path d="M18.1467 17.5062C16.1085 8.50539 11.0008 1.1836 10.2968 0C9.18356 1.67906 5.10993 8.14756 3.03899 15.3042C0.777079 23.3142 0.444199 30.4158 1.22454 37.3797C1.99945 44.3712 4.92712 51.5554 4.92712 51.5554C6.48237 55.2989 8.8125 59.3451 10.3295 61.327C12.5533 58.4093 17.6637 49.7112 19.2572 38.3706C20.1439 32.0398 20.1821 26.5071 18.1467 17.5062ZM10.2968 59.0699C9.29545 57.1706 7.74019 53.5648 7.59286 47.9496C7.55465 42.5545 9.70198 37.9027 10.3295 36.9393C10.8889 37.9027 12.7388 41.949 12.9598 47.4816C13.1099 52.8766 11.3309 57.1431 10.2968 59.0699ZM17.5546 32.7829C17.4782 36.2237 17.0716 39.857 16.5532 42.0315C16.7388 38.2881 16.294 33.0307 15.4427 28.9019C14.5914 24.8005 12.1822 17.9191 10.2586 14.7537C8.48235 17.7815 6.2941 23.727 5.14813 28.8743C3.99671 34.0216 3.96396 40.2699 3.96396 42.1417C3.65837 40.5727 2.89438 34.93 3.10994 29.2872C3.29002 24.6354 4.3705 19.8184 4.96259 17.6164C7.22178 10.267 9.77838 5.56016 10.2586 4.81696C10.7388 5.56016 13.9584 11.3681 15.6283 17.4512C17.2899 23.5344 17.6255 29.3698 17.5546 32.7829Z" fill="white" fill-opacity="0.5"/>
</svg>
