<svg width="17" height="34" viewBox="0 0 17 34" fill="none" xmlns="http://www.w3.org/2000/svg">
<path d="M7.55352 22.2465V28.5774C7.55352 29.4307 8.20835 29.6784 8.59033 29.6784C9.2179 29.6784 9.65445 29.1554 9.65445 28.5774V20.7601C9.65445 19.7141 9.46345 18.5581 6.98052 18.5581H4.27931V14.8696H7.08966C8.97232 14.8696 9.65445 14.4292 9.65445 12.3648V5.70362C9.65445 5.12559 9.2179 4.60259 8.59033 4.60259C8.20835 4.60259 7.55352 4.82282 7.55352 5.70362V11.1812H0.895996V6.41928C0.895996 4.07961 1.16883 0.418701 5.83456 0.418701H11.3461C16.0118 0.418701 16.312 4.07961 16.312 6.41928V11.7868C16.312 15.4477 13.7745 16.4386 11.7827 16.356V16.6863C16.2574 16.5762 16.312 20.0445 16.312 21.2281V27.9993C16.312 30.3665 16.0118 33.9999 11.3461 33.9999H5.83456C1.16883 33.9999 0.895996 30.3665 0.895996 27.9993V22.2465H7.55352Z" fill="white" fill-opacity="0.5"/>
</svg>
