<svg width="16" height="34" viewBox="0 0 16 34" fill="none" xmlns="http://www.w3.org/2000/svg">
<path d="M9.00088 28.5774C9.00088 29.1554 8.56434 29.6784 7.93679 29.6784C7.5548 29.6784 6.89995 29.4307 6.89995 28.5774V5.70362C6.89995 4.82282 7.5548 4.60259 7.93679 4.60259C8.56434 4.60259 9.00088 5.12559 9.00088 5.70362V28.5774ZM0.242432 27.9993C0.242432 30.3665 0.542553 33.9999 5.18099 33.9999H10.7199C15.3583 33.9999 15.6584 30.3665 15.6584 27.9993V6.41928C15.6584 4.07961 15.3583 0.418701 10.7199 0.418701H5.18099C0.542553 0.418701 0.242432 4.07961 0.242432 6.41928V27.9993Z" fill="white" fill-opacity="0.5"/>
</svg>
