<svg width="58" height="68" viewBox="0 0 58 68" fill="none" xmlns="http://www.w3.org/2000/svg">
<path d="M48.7527 34.4188H33.2576V44.9061C33.2713 44.9061 33.2822 44.8786 33.2958 44.8786C36.9465 41.1902 42.8674 41.1902 46.5208 44.8786C50.1715 48.5395 50.1715 54.5125 46.5208 58.201C46.5045 58.2285 46.4881 58.2285 46.4717 58.256C46.4526 58.256 46.4335 58.2835 46.4171 58.3111C42.7746 61.9444 38.0161 63.7611 33.2576 63.7611C28.4773 63.7611 23.697 61.9444 20.0517 58.256C13.6234 51.7875 12.8621 41.7406 17.7625 34.4188C18.4228 33.4279 19.184 32.492 20.0517 31.6112C23.697 27.9228 28.4773 26.1061 33.2576 26.1061V0.8927C14.8894 0.8927 0 15.8941 0 34.4188C0 52.9436 14.8894 67.9725 33.2576 67.9725C42.8346 67.9725 51.4621 63.8712 57.5303 57.3477V34.4188H48.7527Z" fill="white" fill-opacity="0.5"/>
</svg>
