<svg width="7" height="7" viewBox="0 0 7 7" fill="none" xmlns="http://www.w3.org/2000/svg">
<path d="M5.27187 2.53794H4.32756V1.59362C4.32756 1.02706 3.86832 0.567688 3.30162 0.567688C2.73492 0.567688 2.27568 1.02706 2.27568 1.59362V2.53794H1.33136C0.764659 2.53794 0.30542 2.99732 0.30542 3.56388C0.30542 4.13044 0.764659 4.58982 1.33136 4.58982H2.27568V5.53427C2.27568 6.10083 2.73492 6.56021 3.30162 6.56021C3.86832 6.56021 4.32756 6.10083 4.32756 5.53427V4.58982H5.27187C5.83857 4.58982 6.29781 4.13044 6.29781 3.56388C6.29781 2.99732 5.83857 2.53794 5.27187 2.53794Z" fill="white"/>
</svg>
