<svg width="56" height="9" viewBox="0 0 56 9" fill="none" xmlns="http://www.w3.org/2000/svg">
<path d="M6.06 8.99976H7.02V0.599755H6.06V4.43976C6.06 4.43976 5.22 5.27976 3.72 5.27976C2.4 5.27976 1.74 4.61976 1.74 3.17976V0.599755H0.78V3.17976C0.78 5.21976 1.74 6.17976 3.72 6.17976C5.1 6.17976 6.06 5.39976 6.06 5.39976V8.99976ZM11.3405 8.99976H12.9605L16.7405 1.73976H16.9805V8.99976H17.9405V0.599755H16.3205L12.5405 7.85976H12.3005V0.599755H11.3405V8.99976ZM24.36 8.99976H25.32V1.49976H28.08V0.599755H21.6V1.49976H24.36V8.99976ZM30.0633 8.99976H31.0833L31.8633 6.83976H36.0633L36.8433 8.99976H37.8633L34.6833 0.599755H33.2433L30.0633 8.99976ZM32.2233 5.93976L33.8433 1.61976H34.0833L35.7033 5.93976H32.2233ZM42.6131 8.99976H43.5731V1.49976H46.3331V0.599755H39.8531V1.49976H42.6131V8.99976ZM49.9913 8.99976H53.4713C54.8513 8.99976 55.9313 7.85976 55.9313 6.35976C55.9313 4.85976 54.8513 3.71976 53.4713 3.71976H50.9513V0.599755H49.9913V8.99976ZM50.9513 8.09976V4.61976H53.4713C54.3113 4.61976 54.9713 5.33976 54.9713 6.35976C54.9713 7.37976 54.3113 8.09976 53.4713 8.09976H50.9513Z" fill="#333333"/>
</svg>
